<?xml version="1.0" encoding="UTF-8"?>
<svg id="Capa_1" data-name="Capa 1" xmlns="http://www.w3.org/2000/svg" viewBox="0 0 762.41 593.22">
  <defs>
    <style>
      .cls-1 {
        fill: #858585;
      }

      .cls-2 {
        fill: #747474;
      }

      .cls-3 {
        fill: #ababab;
      }

      .cls-4 {
        fill: #f7f8f7;
      }
    </style>
  </defs>
  <path class="cls-1" d="M209.29,268.56c-25.67-27.91-52.84-102.6-68.09-113.93l-.47,2.5c8.33,14.69,14.55,30.8,22.42,46.31l62.28,121.7c11.75,22.95,119.23,230.23,119.18,238.98-7.55-8.7-38.49-67.09-45.71-80.38-58.72-107.79-110.45-220.01-165.92-329.6C119.32,127.17,54.03,19.18,49.93,0c43.79,50.65,46.92,110.29,103.19,153.45,47.1-13.53,108.56-31.3,153.34-52.85,3.32-1.61,15.02-13.38,18.17-16.61,7.85-3.08,8.05-3.84,16.54-2.37,6.07,4.27,11.22,8.21,17.89,11.53l-.72-7.19c6.45-8.91,59.78-19.23,77.4-26.03l3.42-1.34,2,3.12c-25.47,12.05-46.61,17.78-73.6,25.53,19.14,18.87,32.84,38.17,49.61,58.99l-4.9,1.25-5.35-2.65c1.72,7.35,3.52,9.24,7.62,15.41l-3.67,1.65-9.37-9.28-3.32.26c-3.95,12.42,3.22,47.09,4.72,62.92l36.66-12.12c-10.3,7.27-28.61,17.92-30.89,30.01,5.05,5.22,2.02,3.66,9.65,4.38l14.15,1.97-11.62,10.11-1.1,3.75c-6.8-8.68-12.05-17.12-21.54-22.26-15.74,7.23-31.66,13.75-48.93,16.44-20.54,6.94-5.45,18.79-15.92,35.08-3.82-2.37-1.8-9.47-14.07-5.53-21.77,6.99-57.9,22.24-77.12,33.43l-2.26-2.34c8.13-21.49,83.35-22.86,95.82-52.8l-.62-7.04-3-2.47c-32.54,3.25-102.74,59.24-122.82,22.2Z"/>
  <path class="cls-4" d="M296.45,112.34l4.1.36c6.17,12.24.52,38.44,5.15,50.74,10.55,28.06,22.77,45.73,31.24,75.21-34.49,13.11-79.95,38.03-116.88,36.61-.82-.03-9.27-5.84-10.76-6.69-14.28-34.62-39.89-72.5-56.38-110.61,47.01-10.63,98.1-29,143.53-45.61Z"/>
  <path class="cls-4" d="M439.17,58.58l2,3.12c-25.47,12.05-46.61,17.78-73.6,25.53,19.14,18.87,32.84,38.17,49.61,58.99l-4.9,1.25-5.35-2.65c1.72,7.35,3.52,9.24,7.62,15.41l-3.67,1.65-9.37-9.28-3.32.26c-3.95,12.42,3.22,47.09,4.72,62.92l36.66-12.12c-10.3,7.27-28.61,17.92-30.89,30.01,5.05,5.22,2.02,3.66,9.65,4.38l14.15,1.97-11.62,10.11-1.1,3.75c-6.8-8.68-12.05-17.12-21.54-22.26l-6.55-2.42c-9.17,3.59-13.47,6.17-23.04,5.91-3.37-5.85-2.02-26.24-2.45-34.27-2.4-45.06-23.29-77.07-41.54-116.84,7.85-3.08,8.05-3.84,16.54-2.37,6.07,4.27,11.22,8.21,17.89,11.53l-.72-7.19c6.45-8.91,59.78-19.23,77.4-26.03l3.42-1.34Z"/>
  <path class="cls-2" d="M439.17,58.58l2,3.12c-25.47,12.05-46.61,17.78-73.6,25.53,19.14,18.87,32.84,38.17,49.61,58.99l-4.9,1.25-5.35-2.65c1.72,7.35,3.52,9.24,7.62,15.41l-3.67,1.65-9.37-9.28-3.32.26c-3.95,12.42,3.22,47.09,4.72,62.92l36.66-12.12c-10.3,7.27-28.61,17.92-30.89,30.01,5.05,5.22,2.02,3.66,9.65,4.38l14.15,1.97-11.62,10.11-1.1,3.75c-6.8-8.68-12.05-17.12-21.54-22.26l-6.55-2.42c-1.3-43.48-7.12-93.54-32.24-129.77l-.35-6.27-.72-7.19c6.45-8.91,59.78-19.23,77.4-26.03l3.42-1.34Z"/>
  <path class="cls-1" d="M324.64,83.99c7.85-3.08,8.05-3.84,16.54-2.37,6.07,4.27,11.22,8.21,17.89,11.53l.35,6.27c-12.02-11.06-19.37-12.01-34.79-15.43Z"/>
  <path class="cls-4" d="M317.49,96.86c27.54,5.73,55.81,123.85,31.79,151.18-7.15-9.34-9.02-21.5-12.97-32.85-13.72-39.54-42.39-76.99-18.82-118.33Z"/>
  <path class="cls-1" d="M461.79,223.35c35.84,34.62,90.84,127.59,104.09,175.7-38.09,33.83-97.67,56.1-145.02,77.33,8.55,17.16,45.68,86.01,44.86,98.99-12.07-9.75-61.45-125.18-76-147.68l.6,9.6c-11.77-1.08-11.1-13.9-14.1-19.88-22.12-44.26-52.03-56-53.63-111.21-12.12,4.32-43.04,16.17-54.13,18.37,19.02-16.16,39.54-12.6,63.88-33.74-2.2,28.47-2.07,43.24,12.05,69.45,15.12,24,27.04,49.13,54.83,59.13,26.49,9.53,71.97-36.01,85-32.65-13.15,20.43-60.8,35.12-84.02,44.55-.52,6.95-.95,3.47,2.67,10.55,22.97,12.96,109.41-37.75,129.48-52.03-10.25-25.55-58.1-111.91-76.5-130.75-9.3-3.54-6.2-3.76-15.07-2.34-12.92,31.28,64.75,96.97,44.68,120.69-10.22-35.32-45.81-91.53-65.7-123.55l1.1-3.75,11.62-10.11-14.15-1.97c18.57-2.89,26.37-6.14,43.46-14.68Z"/>
  <path class="cls-4" d="M432.47,240c9.72-3.22,16.07-5.79,25.42-9.96,40.19,34.31,88.09,119.41,100.84,170.36-21.04,14.46-116.66,65.78-138.5,68.55-6.75-5.49-4.27-2.16-7.42-10.54,10.12-12.4,93.02-37.64,125.78-67.34-10.27-27.06-61.48-121.62-81.62-138.03-20.79-4.63-24.72,13.54-36.11-2.92l11.62-10.11Z"/>
  <path class="cls-2" d="M14.14,7.65c12.69,7.24,96.45,164.09,110.82,189.74,71.78,128.02,142.79,256.47,213.02,385.34-12.17-4.95-54.23-88.37-62.93-104.15l-91.42-163.71C130.59,219.99,61.84,103.95,14.14,7.65Z"/>
  <path class="cls-2" d="M658.07,481.28c-5.9-9.78-11.2-19.25-16.62-29.89-52.03-101.8-111.99-209.39-133.73-322.53-5.8-30.12,3.07-91,12.02-119l2.85-.91c2.2,14.38-6.8,35.23-8.1,50.44-12.75,150.16,85.67,290.65,147.47,420.43l-3.9,1.47Z"/>
  <path class="cls-1" d="M417.18,146.22c81.4,86.65,149.62,207.61,209.68,309.72,25.34,43.07,57.75,93.93,80.72,137.28-11.7-11.84-18.39-21.12-27.22-35.4-71.9-116.57-133.4-241.47-218.17-349.43-16.17-20.61-33.29-40.79-49.91-60.92l4.9-1.25Z"/>
  <path class="cls-2" d="M177.22,42.4c14.43-4.82,30.06,2.9,35,17.31,4.94,14.4-2.65,30.1-17.01,35.16-14.52,5.12-30.43-2.58-35.43-17.16-5-14.57,2.83-30.43,17.44-35.31Z"/>
  <path class="cls-4" d="M178.63,47.35c7.61-2.6,16.02-.91,22.04,4.43,6.02,5.33,8.71,13.49,7.05,21.36-1.66,7.87-7.42,14.24-15.08,16.69-11.68,3.73-24.18-2.65-28.02-14.3-3.84-11.65,2.4-24.22,14.01-28.18Z"/>
  <path class="cls-2" d="M158.78,116.19c37.36-9.79,239.13-70.97,266.5-88.59,6.12-11.87-1.1-6.82.8-20.57l4.8-.26c2.52,9.9,3.12,10.92,2.27,20.87-14.69,20.22-244.48,86.8-278.71,93.55-24.91-24.33-58.67-82.45-72.15-115.83,26.9,19.5,34.64,81.88,76.49,110.83Z"/>
  <path class="cls-2" d="M291.05,12.32c14.52-3.31,28.96,5.88,32.14,20.45,3.17,14.57-6.15,28.93-20.74,31.97-14.39,3-28.52-6.17-31.66-20.55-3.12-14.38,5.92-28.61,20.27-31.87Z"/>
  <path class="cls-4" d="M291.4,17.41c11-2.84,22.29,3.39,25.82,14.2,3.5,10.82-2.02,22.49-12.6,26.65-7.45,2.93-15.89,1.48-21.94-3.75-6.05-5.24-8.7-13.4-6.85-21.19,1.82-7.79,7.82-13.92,15.57-15.92Z"/>
  <path class="cls-1" d="M211.22,483.53c34.1,2.52,58.94,31.91,77.88,57.93,7.72,10.61,22.67,26.77,18.87,40.02-16.52-6.85-23.79-67.46-87.95-92.96-36.71,7.71-49.89,14.53-82.96,30.78-45.91,21.87-91.6,44.21-137.05,67.01,23.93-28.42,169.01-85.89,211.22-102.77Z"/>
  <path class="cls-3" d="M337.46,498.36c10.92-2.09,9.45-.06,15.84-6.61,5.07-38.71-97.57-146.35-84.85-167.18,21.87,39.56,45.86,81.83,73.85,117.18,4.6-6.95,7.05-12.45,14.37-16.08,1.05,6.96-6.42,18.38-9.9,25.52,7.5,18.27,46.21,107.25,46.48,121.26-16.12-7.03-11.47-73.81-55.81-74.08Z"/>
  <path class="cls-1" d="M758.44,176.03l.82.75c3.42,20.33-124.88,65.46-119.91,119.42,5.22,56.54-.25,92.29,16.32,150.55-25.17-40.35-21.57-119.22-21.34-168.58,38.01-46.59,74.75-68.75,124.11-102.13Z"/>
  <path class="cls-3" d="M238.39,316.4c11.55,35.34,23.57,54.94,41.32,85.4,9.75,16.75,54.28,82.02,57.75,96.57-9.87-4.41-21.19-27.6-27.04-38.19-21.12-38.24-75-99.72-72.03-143.78Z"/>
  <path class="cls-2" d="M644.57,296c2.85.06,6.75.69,9.67,1.06,25.07,16.48,91.22,97.38,108.16,124.88-21.14-13.45-58.55-68.6-78.4-89.72-16.07-17.09-19.64-20.68-39.44-36.22Z"/>
  <path class="cls-1" d="M661.97,479.81c21.04,36.83,53.26,74.62,67.98,111.29-15.24-20.06-62.05-87.57-71.87-109.82l3.9-1.47Z"/>
  <path class="cls-2" d="M688.01,495.42c21.77,31.26,39.69,54.93,55.41,89.77-21.67-25.07-40.66-57.52-57.98-85.98l2.57-3.79Z"/>
  <path class="cls-1" d="M439.17,58.58l2.35-1.58c30.66-21.03,3.82-28.5,6.97-48.95l3.4-.31c17.27,22.71,15.07,41.06-10.72,53.95l-2-3.12Z"/>
  <path class="cls-3" d="M414.56,160.22c7.47,8.48,28.04,31.32,29.51,41.02l-3.67,4.76-4.32-.38c-1.67-18.03-12.87-27.92-25.19-43.76l3.67-1.65Z"/>
  <path class="cls-2" d="M362.3,14.59c4.55-1.19,10.6,11.82,25.19,19.85-14.02-1.36-23.97-4.07-25.19-19.85Z"/>
  <path class="cls-3" d="M685.44,499.21c-4.92-7.49-11.55-15.41-12-23.98,6.57,3.95,10.57,13.18,14.57,20.19l-2.57,3.79Z"/>
</svg>